<?xml version="1.0" encoding="UTF-8"?>
<svg xmlns="http://www.w3.org/2000/svg" xmlns:xlink="http://www.w3.org/1999/xlink" width="373px" height="272px" viewBox="0 0 373 272" version="1.1">
<g id="surface1">
<path style="fill-rule:nonzero;fill:rgb(53.72549%,70.588235%,98.039216%);fill-opacity:1;stroke-width:1.497;stroke-linecap:butt;stroke-linejoin:miter;stroke:rgb(53.72549%,70.588235%,98.039216%);stroke-opacity:1;stroke-miterlimit:4;" d="M 94.017341 59.922771 C 87.638908 69.482911 78.092983 78.991374 71.906958 88.086427 C 69.52358 91.447462 66.664354 97.683774 72.825552 98.134392 C 75.32272 98.235678 78.092983 97.218686 80.747387 96.226498 C 84.361764 94.87671 88.044414 93.34502 90.818815 91.831934 C 111.787162 80.403175 127.450838 70.524708 146.424762 60.958367 C 147.07026 60.631772 147.432318 61.212615 146.968884 61.704574 C 121.984792 75.909392 95.953836 98.723503 71.56352 105.530323 C 63.798921 107.407211 62.425169 102.754265 65.340255 96.164486 C 72.033162 83.191635 81.736324 72.575229 90.54365 62.469386 C 91.538793 61.326303 94.766284 58.961589 94.017341 59.922771 Z M 94.017341 59.922771 " transform="matrix(1.888076,0,0,1.889764,-8.652556,-111.400038)"/>
<path style="fill-rule:nonzero;fill:rgb(0%,0%,0%);fill-opacity:1;stroke-width:0.264583;stroke-linecap:butt;stroke-linejoin:miter;stroke:rgb(90.980392%,76.078431%,61.176471%);stroke-opacity:1;stroke-miterlimit:4;" d="M 59.371466 105.26574 C 59.371466 105.276075 59.36319 105.28641 59.352846 105.28641 C 59.342501 105.28641 59.332157 105.276075 59.332157 105.26574 C 59.332157 105.255404 59.342501 105.247136 59.352846 105.247136 C 59.36319 105.247136 59.371466 105.255404 59.371466 105.26574 Z M 59.371466 105.26574 " transform="matrix(1.888076,0,0,1.889764,-8.652556,-111.400038)"/>
<path style="fill-rule:nonzero;fill:rgb(90.196078%,27.058824%,32.54902%);fill-opacity:1;stroke-width:1.497;stroke-linecap:butt;stroke-linejoin:miter;stroke:rgb(95.294118%,54.509804%,65.882353%);stroke-opacity:1;stroke-miterlimit:4;" d="M 58.185984 105.383562 C 40.519608 121.444597 10.760485 142.274333 5.395816 162.85809 C 5.075135 164.896208 5.890284 166.351417 7.297139 167.337403 C 8.478483 168.166293 10.017748 168.346127 11.263229 168.209701 C 13.156276 168.000929 14.968637 167.296062 16.758239 166.432032 C 23.759412 163.056527 30.516454 158.46766 36.456279 154.436899 C 37.556936 153.688624 38.736212 153.049903 39.768595 152.212745 C 44.419493 148.4445 51.188948 144.789942 53.727494 139.314307 C 54.325408 138.026531 52.906139 138.320053 52.1303 138.907097 C 50.31794 140.279623 48.511786 141.662485 46.660116 142.981267 C 38.717592 148.434164 30.036469 154.011085 21.845675 157.969499 C 19.412644 159.129119 16.929958 160.40656 14.259003 160.774496 C 5.780632 159.499122 17.600283 146.534539 19.861596 143.919711 C 31.269536 130.502442 45.023613 117.244337 55.732263 109.017449 C 56.714992 108.260906 58.949409 106.88838 59.836969 105.464177 C 60.354195 104.631153 58.839757 104.786182 58.185984 105.383562 Z M 58.185984 105.383562 " transform="matrix(1.888076,0,0,1.889764,-8.652556,-111.400038)"/>
<path style="fill-rule:nonzero;fill:rgb(89.019608%,76.470588%,63.137255%);fill-opacity:1;stroke-width:0.397;stroke-linecap:butt;stroke-linejoin:miter;stroke:rgb(90.980392%,76.078431%,61.176471%);stroke-opacity:1;stroke-miterlimit:4;" d="M 30.282668 177.802914 C 29.918541 178.36102 29.682686 178.404428 29.237871 178.406495 C 28.875813 178.406495 28.112387 177.995151 28.623407 177.234473 C 32.018479 172.197055 35.994914 167.649529 39.925832 163.120606 C 42.493343 160.164714 44.620177 157.613966 47.065622 154.827572 C 48.664885 153.006495 50.446212 151.292904 52.227538 150.120883 C 52.964068 149.635124 53.847491 149.273389 54.635743 149.308529 C 57.062568 149.484229 49.233834 157.318376 48.78695 157.669776 C 48.18283 158.147266 47.663535 158.765317 47.059415 159.286215 C 41.5913 164.836264 36.102497 169.392058 31.660559 175.688315 C 31.178504 176.376645 30.282668 177.802914 30.282668 177.802914 Z M 30.282668 177.802914 " transform="matrix(1.888076,0,0,1.889764,-8.652556,-111.400038)"/>
<path style="fill-rule:nonzero;fill:rgb(89.019608%,76.470588%,63.137255%);fill-opacity:1;stroke-width:0.397;stroke-linecap:butt;stroke-linejoin:miter;stroke:rgb(90.980392%,76.078431%,61.176471%);stroke-opacity:1;stroke-miterlimit:4;" d="M 131.462444 108.905828 C 138.956016 103.653435 144.146898 107.675929 142.872453 116.053712 C 141.918688 122.321029 136.651257 126.860287 133.051363 131.30446 C 131.990015 132.610841 133.659621 133.049057 134.545112 132.329721 C 143.714497 124.894516 151.501853 115.663038 150.409472 104.50713 C 150.217064 102.541358 150.252235 99.153451 145.702714 99.09144 C 140.234599 99.017026 133.636863 104.538136 129.708013 108.715658 C 128.946656 109.525945 130.483852 109.592091 131.462444 108.905828 Z M 131.462444 108.905828 " transform="matrix(1.888076,0,0,1.889764,-8.652556,-111.400038)"/>
<path style="fill-rule:nonzero;fill:rgb(100%,43.921569%,54.117647%);fill-opacity:1;stroke-width:0.813818;stroke-linecap:butt;stroke-linejoin:miter;stroke:rgb(95.294118%,54.509804%,65.882353%);stroke-opacity:1;stroke-miterlimit:4;" d="M 108.753778 671.870398 C 108.753778 669.925085 122.828845 650.339148 131.289525 640.50321 C 138.350517 632.300085 164.115709 602.323522 172.631125 592.409459 C 186.948596 575.737584 197.285951 566.776646 203.658828 565.503209 C 213.206416 563.596959 204.956862 573.940709 166.070579 612.62821 C 135.113251 643.432897 122.367496 657.675085 115.415977 669.19071 C 113.007576 673.19071 108.753778 674.901648 108.753778 671.870398 Z M 108.753778 671.870398 " transform="matrix(0.499554,0,0,0.5,-8.652556,-111.400038)"/>
<path style="fill-rule:nonzero;fill:rgb(100%,43.921569%,54.117647%);fill-opacity:1;stroke-width:0.143622;stroke-linecap:butt;stroke-linejoin:miter;stroke:rgb(95.294118%,54.509804%,65.882353%);stroke-opacity:1;stroke-miterlimit:4;" d="M 109.074377 674.604773 C 106.955297 673.682898 106.353197 671.714148 107.580856 669.682898 C 109.457531 666.573523 117.605431 655.456335 123.024332 648.604773 C 129.217362 640.792272 134.487693 634.511022 147.421115 619.557897 C 152.112805 614.136022 159.330186 605.745397 163.466692 600.909459 C 178.096942 583.792272 181.967586 579.503209 186.745289 575.112584 C 195.127774 567.401646 200.640508 564.050084 205.488587 563.698521 C 207.232332 563.573521 208.100294 563.925084 208.632019 564.971959 C 209.132466 565.940709 208.929159 567.018834 207.810973 569.315709 C 205.926478 573.221959 201.195692 579.261022 193.571697 587.503209 C 190.842698 590.464147 186.72965 594.550084 179.653019 601.346959 C 172.803153 607.917272 156.913966 623.386022 150.932063 629.300085 C 134.651902 645.401647 125.16687 656.581335 116.823483 669.50321 C 114.383805 673.276648 113.766066 674.026648 112.64788 674.542273 C 111.701723 674.979773 110.012715 675.011023 109.074377 674.604773 Z M 111.474958 673.542273 C 112.991937 672.979773 114.852974 671.09696 116.409051 668.557898 C 121.327505 660.542273 129.983671 650.276648 144.887603 634.81571 C 147.546227 632.057897 158.853198 620.620397 170.011598 609.40946 C 181.162179 598.198522 191.827952 587.331334 193.712448 585.261022 C 206.638051 571.042272 209.687649 566.284459 206.700607 565.034459 C 205.863922 564.690709 204.260928 564.784459 202.564101 565.284459 C 196.519642 567.073521 187.089346 575.190709 174.867496 589.120397 C 167.001098 598.081334 129.38939 641.964147 126.754225 645.25321 C 121.022545 652.40946 113.422009 662.886023 110.090909 668.229773 C 108.589569 670.643835 108.300248 671.237585 108.300248 671.901648 C 108.300248 672.78446 108.699042 673.495398 109.33242 673.75321 C 109.973617 674.011023 110.325494 673.979773 111.474958 673.542273 Z M 111.474958 673.542273 " transform="matrix(0.499554,0,0,0.5,-8.652556,-111.400038)"/>
<path style="fill-rule:nonzero;fill:rgb(100%,43.921569%,54.117647%);fill-opacity:1;stroke-width:0.039245;stroke-linecap:butt;stroke-linejoin:miter;stroke:rgb(95.294118%,54.509804%,65.882353%);stroke-opacity:1;stroke-miterlimit:4;" d="M 35.516512 632.573522 C 30.723169 631.620397 26.469371 628.542272 24.467584 624.581335 C 22.708201 621.089147 22.692562 617.84696 24.420667 612.22196 C 29.667539 595.081334 39.31678 577.393834 54.079961 557.846959 C 70.360123 536.292271 93.279024 512.495396 126.152125 483.034458 C 128.959319 480.518833 131.344261 478.464145 131.461553 478.464145 C 131.578845 478.464145 128.607442 481.565708 124.854091 485.362583 C 104.65637 505.800083 83.105878 529.487584 64.675359 551.526646 C 54.721159 563.425084 48.184072 572.846959 43.98501 581.346959 C 41.013607 587.362584 39.473169 592.581334 39.488808 596.612584 C 39.504447 601.253209 41.545332 605.214147 45.150113 607.604772 C 47.683625 609.28446 52.74283 610.84696 54.650784 610.542272 C 63.142741 609.182897 70.09426 606.511022 87.30494 597.995397 C 107.682509 587.909459 129.952393 574.815709 157.101634 556.956334 C 172.177595 547.034459 180.489704 541.206334 192.633359 532.065709 C 196.23814 529.346959 199.233002 527.175083 199.287738 527.237583 C 199.459767 527.409458 196.769865 531.714146 195.104315 533.932896 C 188.911286 542.198521 181.920669 548.323521 162.997523 562.073521 C 158.563877 565.300084 152.965128 569.456334 150.564547 571.323522 C 148.156147 573.190709 145.020535 575.471959 143.597389 576.393834 C 142.166424 577.307897 135.652795 581.643834 129.107889 586.018834 C 98.596271 606.425084 84.396092 615.081335 66.810078 623.956335 C 56.801141 629.011022 51.327504 631.143835 45.415976 632.28446 C 42.366378 632.870397 37.705967 633.011022 35.516512 632.573522 Z M 35.516512 632.573522 " transform="matrix(0.499554,0,0,0.5,-8.652556,-111.400038)"/>
<path style="fill-rule:nonzero;fill:rgb(100%,43.921569%,54.117647%);fill-opacity:1;stroke-width:0.039245;stroke-linecap:butt;stroke-linejoin:miter;stroke:rgb(95.294118%,54.509804%,65.882353%);stroke-opacity:1;stroke-miterlimit:4;" d="M 34.930051 638.182897 C 28.134921 636.948522 22.465797 632.979772 19.580408 627.44071 C 18.000873 624.393835 17.531704 622.37821 17.531704 618.643835 C 17.531704 615.737585 17.617718 615.214147 18.681167 611.675085 C 28.353866 579.589147 51.882687 546.237584 93.279024 505.940708 C 113.805163 485.964145 127.387603 473.91727 170.918658 437.065707 C 195.925361 415.901645 205.723172 407.456332 215.458426 398.682894 C 219.399445 395.128207 221.323038 394.042269 224.059856 393.823519 C 225.490822 393.706332 226.022546 393.792269 227.054718 394.292269 C 229.43966 395.448519 229.822814 397.784457 228.071251 400.479769 C 226.038185 403.620394 223.074602 406.300082 215.732108 411.659457 C 210.305388 415.620395 202.822144 421.534457 194.830633 428.182895 C 159.916647 457.214145 119.270981 497.300083 85.608112 535.886021 C 65.989032 558.378209 61.406816 564.034459 54.869729 573.831334 C 46.127548 586.925084 43.179604 596.940709 46.698371 601.550084 C 47.511597 602.612584 49.998192 603.971959 52.187647 604.534459 C 53.728085 604.932897 54.001767 604.925084 56.558737 604.409459 C 62.149667 603.284459 67.584206 601.190709 78.875538 595.831334 C 102.341803 584.690709 128.138273 569.511022 161.08175 547.464146 C 174.851858 538.245396 176.916201 536.784459 188.113699 528.362584 C 192.680276 524.925083 197.106103 521.792271 197.950607 521.393833 C 199.960214 520.456333 203.416424 520.362583 204.589347 521.229771 C 205.621518 521.987583 206.168882 523.253208 206.168882 524.870396 C 206.168882 527.307896 202.595379 533.682896 198.060079 539.346959 C 191.913967 547.011021 184.649668 553.300084 167.814324 565.550084 C 162.684744 569.276647 156.476075 573.893834 154.012939 575.807897 C 151.549802 577.721959 147.585325 580.550084 145.192563 582.096959 C 142.807621 583.636022 137.138497 587.401647 132.595378 590.464147 C 109.004001 606.370397 94.201722 615.636022 79.516736 623.698522 C 73.972723 626.745397 63.127102 632.175085 59.577057 633.69071 C 49.919997 637.792272 41.365484 639.354772 34.930051 638.182897 Z M 47.136262 632.206335 C 52.797566 630.854772 56.957531 629.198522 65.989032 624.682897 C 82.871293 616.245397 96.930722 607.792272 122.375315 590.807897 C 129.717809 585.901647 138.264502 580.221959 141.368837 578.182897 C 144.473171 576.143834 148.828622 573.057897 151.049355 571.323522 C 153.270088 569.589147 159.236352 565.151646 164.311196 561.464146 C 178.222054 551.354771 183.609677 546.948521 189.568122 540.800084 C 193.180723 537.065709 196.683851 532.604771 198.49797 529.425084 C 199.928936 526.909458 200.116603 526.409458 199.537961 526.636021 C 199.287738 526.729771 195.612582 529.425084 191.358784 532.628209 C 179.504449 541.565709 173.092474 546.057896 157.351857 556.425084 C 127.630007 576.011022 103.397433 590.096959 81.2683 600.643834 C 70.618165 605.714147 65.41821 607.78446 59.702169 609.22196 C 54.525672 610.526647 53.133804 610.557897 49.73233 609.448522 C 44.282151 607.675085 40.865037 604.042272 40.012714 599.120397 C 38.268969 589.081334 47.480319 572.026647 66.974287 549.214146 C 90.61258 521.550083 109.47317 501.018833 130.671785 479.870395 C 134.644082 475.909458 137.84225 472.620395 137.787514 472.565708 C 137.662402 472.440708 127.176477 481.659458 119.005119 489.089146 C 108.542652 498.596958 100.848282 505.901646 91.808961 514.940708 C 70.868389 535.870396 56.558737 552.753209 44.813876 570.417272 C 35.821471 583.932897 29.917763 595.393834 25.648326 607.636022 C 22.86459 615.620397 22.356324 618.667272 23.232106 622.050085 C 24.569237 627.15946 29.20619 631.40946 34.867495 632.706335 C 37.541757 633.31571 43.484564 633.073522 47.136262 632.206335 Z M 47.136262 632.206335 " transform="matrix(0.499554,0,0,0.5,-8.652556,-111.400038)"/>
<path style="fill-rule:nonzero;fill:rgb(100%,43.921569%,54.117647%);fill-opacity:1;stroke-width:0.0034688;stroke-linecap:butt;stroke-linejoin:miter;stroke:rgb(95.294118%,54.509804%,65.882353%);stroke-opacity:1;stroke-miterlimit:4;" d="M 173.475629 605.925084 C 173.475629 605.831334 173.499087 605.807897 174.844038 604.448522 C 182.20217 597.050084 191.132019 587.932897 193.352751 585.557897 C 194.619507 584.206334 199.975852 578.182897 199.913297 578.182897 C 199.905477 578.182897 199.780365 578.315709 199.639615 578.479772 C 196.019195 582.620397 189.654137 589.386022 183.210884 595.948522 C 180.255119 598.948522 178.120401 601.120397 176.533046 602.721959 C 175.493055 603.761022 174.382689 604.886022 174.06209 605.206334 L 173.475629 605.800084 L 173.475629 604.667272 L 174.906594 603.229772 C 176.47049 601.659459 178.112581 599.995397 179.355879 598.737584 C 179.79377 598.292272 180.474065 597.596959 180.865039 597.198522 C 181.256013 596.800084 182.0536 595.987584 182.640061 595.393834 C 183.226523 594.792272 183.922456 594.081334 184.188319 593.807897 C 185.462894 592.503209 187.816558 590.065709 189.419552 588.386022 C 196.53528 580.925084 201.203511 575.667272 203.885593 572.089147 L 204.135817 571.745397 L 204.143636 572.487584 L 204.143636 573.229772 L 203.885593 573.565709 C 201.868167 576.159459 198.865486 579.651647 194.603868 584.362584 C 193.391849 585.706334 192.390955 586.776647 190.8036 588.401647 C 190.592474 588.620397 190.021652 589.206334 189.536844 589.706334 C 189.052036 590.198522 188.410839 590.854772 188.113699 591.167272 C 186.925137 592.378209 186.43251 592.878209 185.877327 593.448522 C 185.556728 593.768834 184.665307 594.682897 183.891178 595.464147 C 183.124869 596.245397 182.116156 597.276647 181.646987 597.745397 C 181.185638 598.214147 180.380231 599.026647 179.871965 599.542272 C 178.566111 600.870397 176.947479 602.503209 175.524333 603.940709 C 174.851858 604.620397 174.116826 605.362584 173.890061 605.596959 L 173.475629 606.018834 Z M 199.991491 578.096959 C 200.022769 578.065709 200.046228 578.034459 200.038408 578.034459 C 200.030589 578.034459 199.999311 578.065709 199.968033 578.096959 C 199.936755 578.128209 199.921116 578.159459 199.921116 578.159459 C 199.928936 578.159459 199.960214 578.128209 199.991491 578.096959 Z M 200.147881 577.917272 C 200.17134 577.886022 200.186978 577.870397 200.179159 577.870397 C 200.17134 577.870397 200.147881 577.886022 200.124423 577.917272 C 200.100964 577.940709 200.085325 577.964147 200.093145 577.964147 C 200.100964 577.964147 200.124423 577.940709 200.147881 577.917272 Z M 200.147881 577.917272 " transform="matrix(0.499554,0,0,0.5,-8.652556,-111.400038)"/>
<path style="fill-rule:nonzero;fill:rgb(100%,43.921569%,54.117647%);fill-opacity:1;stroke-width:0.00693761;stroke-linecap:butt;stroke-linejoin:miter;stroke:rgb(95.294118%,54.509804%,65.882353%);stroke-opacity:1;stroke-miterlimit:4;" d="M 154.693233 613.276647 L 154.693233 612.69071 L 163.396317 602.565709 C 168.189659 596.987584 172.451277 592.034459 172.873529 591.542272 C 173.295781 591.050084 173.624199 590.667272 173.585101 590.690709 C 173.475629 590.761022 161.433627 604.714147 156.053823 611.00321 C 154.638497 612.65946 154.693233 612.59696 154.693233 612.495397 C 154.693233 612.456335 155.318792 611.69071 156.085101 610.807897 C 174.953511 588.854772 177.330633 586.136022 181.74864 581.518834 C 185.846049 577.229772 189.74797 573.565709 193.016514 570.940709 C 197.473618 567.362584 200.898551 565.464146 203.916871 564.917271 C 204.604986 564.792271 205.918659 564.761021 206.333091 564.870396 C 207.889168 565.261021 208.201947 566.440709 207.271429 568.440709 C 206.825719 569.401647 205.879561 570.893834 204.769195 572.386022 L 204.159275 573.206334 L 204.159275 571.729772 L 204.479874 571.284459 C 205.809186 569.456334 206.64587 567.917272 206.841357 566.956334 C 206.966469 566.354771 206.849177 566.034459 206.442564 565.831334 C 206.223618 565.729771 206.161063 565.721959 205.363475 565.721959 C 204.612805 565.721959 204.448596 565.737584 203.799579 565.878209 C 202.955075 566.057896 202.259141 566.268834 201.445915 566.612584 C 195.878444 568.956334 188.012045 575.784459 177.737246 587.190709 C 175.805834 589.331334 174.554717 590.761022 170.175807 595.862584 C 169.354762 596.815709 168.158381 598.206334 167.517184 598.956334 C 166.883806 599.698522 165.61705 601.167272 164.717809 602.214147 C 163.818569 603.261022 162.755119 604.503209 162.348506 604.964147 C 161.949713 605.432897 160.690776 606.901647 159.549132 608.229772 C 155.79578 612.589147 155.068569 613.44071 154.880901 613.65946 L 154.693233 613.870397 Z M 173.804047 590.464147 L 173.944798 590.307897 L 173.788408 590.448522 C 173.639838 590.581334 173.60856 590.620397 173.647657 590.620397 C 173.655477 590.620397 173.725852 590.550084 173.804047 590.464147 Z M 174.116826 590.112584 C 174.202841 590.018834 174.265396 589.940709 174.257577 589.940709 C 174.241938 589.940709 174.155924 590.018834 174.06209 590.112584 C 173.976076 590.206334 173.91352 590.284459 173.929159 590.284459 C 173.936978 590.284459 174.022992 590.206334 174.116826 590.112584 Z M 174.453064 589.729772 C 174.539078 589.636022 174.601634 589.557897 174.593815 589.557897 C 174.578176 589.557897 174.492161 589.636022 174.406147 589.729772 C 174.312313 589.823522 174.249757 589.893834 174.265396 589.893834 C 174.281035 589.893834 174.35923 589.823522 174.453064 589.729772 Z M 175.352304 588.698522 C 176.306281 587.620397 177.643413 586.136022 178.245513 585.479772 C 179.176031 584.456334 180.560079 582.964147 180.927595 582.581334 C 182.108337 581.331334 182.499311 580.925084 183.461107 579.948522 C 184.297792 579.089147 184.360347 579.018834 183.734789 579.628209 C 181.998864 581.331334 178.354985 585.253209 175.641625 588.323522 C 175.219373 588.807897 174.804941 589.268834 174.726746 589.354772 C 174.640732 589.440709 174.593815 589.511022 174.609454 589.511022 C 174.625093 589.511022 174.953511 589.143834 175.352304 588.698522 Z M 185.853868 577.542272 L 186.792206 576.589147 L 185.838229 577.526647 C 184.954628 578.401647 184.860794 578.495397 184.899892 578.495397 C 184.907711 578.495397 185.337783 578.065709 185.853868 577.542272 Z M 187.370848 576.081334 C 187.581974 575.870397 187.746183 575.690709 187.730544 575.690709 C 187.722725 575.690709 187.535057 575.870397 187.323931 576.081334 C 187.112805 576.292272 186.948596 576.464147 186.964235 576.464147 C 186.979874 576.464147 187.159722 576.292272 187.370848 576.081334 Z M 188.215352 575.284459 C 188.363922 575.136022 188.473395 575.018834 188.457756 575.018834 C 188.442117 575.018834 188.317005 575.136022 188.168435 575.284459 C 188.027684 575.432897 187.918212 575.550084 187.933851 575.550084 C 187.949489 575.550084 188.074601 575.432897 188.215352 575.284459 Z M 188.825271 574.729772 C 188.926925 574.620397 188.9973 574.534459 188.989481 574.534459 C 188.973842 574.534459 188.880008 574.620397 188.770535 574.729772 C 188.668882 574.831334 188.598506 574.925084 188.606326 574.925084 C 188.621965 574.925084 188.715799 574.831334 188.825271 574.729772 Z M 189.356996 574.229772 L 189.497747 574.073522 L 189.341357 574.214147 C 189.255343 574.292272 189.184968 574.370397 189.184968 574.378209 C 189.184968 574.409459 189.224065 574.378209 189.356996 574.229772 Z M 189.857443 573.784459 C 189.919999 573.721959 189.966916 573.667272 189.951277 573.667272 C 189.935638 573.667272 189.873082 573.721959 189.810526 573.784459 C 189.74797 573.854772 189.708873 573.909459 189.724512 573.909459 C 189.740151 573.909459 189.802707 573.854772 189.857443 573.784459 Z M 190.271876 573.409459 L 190.420446 573.253209 L 190.256237 573.393834 C 190.170222 573.471959 190.099847 573.542272 190.099847 573.550084 C 190.099847 573.589147 190.138944 573.557897 190.271876 573.409459 Z M 190.65503 573.089147 C 190.709767 573.034459 190.733225 572.987584 190.725406 572.987584 C 190.709767 572.987584 190.65503 573.034459 190.608113 573.089147 C 190.561196 573.136022 190.529918 573.182897 190.545557 573.182897 C 190.561196 573.182897 190.608113 573.136022 190.65503 573.089147 Z M 191.069463 572.721959 C 191.132019 572.659459 191.171116 572.604772 191.155477 572.604772 C 191.147658 572.604772 191.085102 572.659459 191.022546 572.721959 C 190.95999 572.792272 190.920893 572.846959 190.928712 572.846959 C 190.944351 572.846959 191.006907 572.792272 191.069463 572.721959 Z M 191.382242 572.456334 C 191.429159 572.401647 191.460437 572.362584 191.444798 572.362584 C 191.429159 572.362584 191.382242 572.401647 191.335325 572.456334 C 191.288408 572.511022 191.25713 572.557897 191.272769 572.557897 C 191.288408 572.557897 191.335325 572.511022 191.382242 572.456334 Z M 191.702841 572.182897 C 191.765397 572.104772 191.757577 572.104772 191.687202 572.159459 C 191.640285 572.198522 191.601187 572.237584 191.601187 572.245397 C 191.601187 572.284459 191.640285 572.261022 191.702841 572.182897 Z M 192.007801 571.925084 C 192.062537 571.870397 192.085995 571.831334 192.070356 571.831334 C 192.062537 571.831334 192.007801 571.870397 191.960884 571.925084 C 191.913967 571.979772 191.882689 572.026647 191.898328 572.026647 C 191.913967 572.026647 191.960884 571.979772 192.007801 571.925084 Z M 192.297121 571.682897 C 192.351858 571.628209 192.375316 571.589147 192.367497 571.589147 C 192.351858 571.589147 192.297121 571.628209 192.250204 571.682897 C 192.203288 571.737584 192.17201 571.784459 192.187649 571.784459 C 192.203288 571.784459 192.250204 571.737584 192.297121 571.682897 Z M 194.212894 570.151647 C 194.27545 570.073522 194.27545 570.073522 194.197255 570.136022 C 194.119061 570.198522 194.087783 570.237584 194.12688 570.237584 C 194.142519 570.237584 194.181616 570.198522 194.212894 570.151647 Z M 197.497077 567.839147 C 197.497077 567.831334 197.45016 567.839147 197.395423 567.870397 C 197.340687 567.893834 197.30159 567.932897 197.30159 567.948522 C 197.30159 567.956334 197.340687 567.948522 197.395423 567.917272 C 197.45016 567.886022 197.497077 567.854772 197.497077 567.839147 Z M 198.263386 567.354771 C 198.263386 567.346959 198.224289 567.354771 198.169552 567.386021 C 198.114816 567.417271 198.075718 567.448521 198.075718 567.464146 C 198.075718 567.471959 198.114816 567.464146 198.169552 567.432896 C 198.224289 567.409459 198.263386 567.370396 198.263386 567.354771 Z M 198.607443 567.167271 C 198.607443 567.151646 198.560526 567.167271 198.50579 567.190709 C 198.451054 567.221959 198.411956 567.253209 198.411956 567.268834 C 198.411956 567.284459 198.451054 567.268834 198.50579 567.237584 C 198.560526 567.214146 198.607443 567.175084 198.607443 567.167271 Z M 207.623306 567.136021 C 207.607667 567.096959 207.592028 567.104771 207.592028 567.167271 C 207.592028 567.214146 207.599847 567.245396 207.615486 567.229771 C 207.631125 567.214146 207.638945 567.167271 207.623306 567.136021 Z M 198.842028 567.018834 C 198.842028 567.003209 198.80293 567.018834 198.748194 567.050084 C 198.693457 567.073521 198.65436 567.112584 198.65436 567.120396 C 198.65436 567.136021 198.693457 567.128209 198.748194 567.096959 C 198.80293 567.065709 198.842028 567.034459 198.842028 567.018834 Z M 207.670223 566.768834 C 207.662403 566.721959 207.646764 566.761021 207.646764 566.854771 C 207.646764 566.948521 207.662403 566.987584 207.670223 566.940709 C 207.685862 566.893834 207.685862 566.815709 207.670223 566.768834 Z M 199.373752 566.729771 C 199.373752 566.721959 199.287738 566.753209 199.186085 566.807896 C 199.076612 566.862584 198.990598 566.917271 198.990598 566.925084 C 198.990598 566.940709 199.076612 566.909459 199.186085 566.854771 C 199.287738 566.800084 199.373752 566.745396 199.373752 566.729771 Z M 200.421563 566.190709 C 200.398104 566.167271 199.428489 566.651646 199.428489 566.682896 C 199.428489 566.698521 199.655254 566.596959 199.928936 566.456334 C 200.210437 566.315709 200.429382 566.198521 200.421563 566.190709 Z M 207.670223 566.190709 C 207.662403 566.143834 207.646764 566.182896 207.646764 566.276646 C 207.646764 566.370396 207.662403 566.409459 207.670223 566.362584 C 207.685862 566.315709 207.685862 566.237584 207.670223 566.190709 Z M 201.180053 565.893834 C 201.461554 565.776646 201.688319 565.667271 201.67268 565.659459 C 201.649222 565.636021 200.585772 566.081334 200.585772 566.112584 C 200.585772 566.128209 200.601411 566.128209 200.624869 566.120396 C 200.648328 566.112584 200.890732 566.011021 201.180053 565.893834 Z M 207.592028 565.893834 C 207.592028 565.878209 207.55293 565.815709 207.513833 565.761021 C 207.451277 565.675084 207.443458 565.682896 207.498194 565.800084 C 207.55293 565.932896 207.592028 565.971959 207.592028 565.893834 Z M 202.345155 565.456334 C 202.665754 565.354771 202.900339 565.261021 202.869061 565.261021 C 202.790866 565.261021 201.743055 565.596959 201.743055 565.628209 C 201.743055 565.651646 201.703958 565.667271 202.345155 565.456334 Z M 203.080187 565.229771 C 203.064548 565.214146 203.02545 565.214146 202.994172 565.229771 C 202.955075 565.245396 202.962895 565.253209 203.017631 565.253209 C 203.072367 565.261021 203.103645 565.245396 203.080187 565.229771 Z M 203.275674 565.182896 C 203.260035 565.167271 203.220937 565.167271 203.18184 565.175084 C 203.142743 565.190709 203.158382 565.206334 203.213118 565.206334 C 203.267854 565.206334 203.291313 565.198521 203.275674 565.182896 Z M 203.752662 565.096959 C 203.909052 565.057896 203.987247 565.026646 203.916871 565.026646 C 203.78394 565.026646 203.275674 565.151646 203.385147 565.159459 C 203.424244 565.159459 203.588453 565.128209 203.752662 565.096959 Z M 204.292206 564.987584 C 204.24529 564.971959 204.167095 564.971959 204.120178 564.987584 C 204.073261 564.995396 204.112358 565.011021 204.206192 565.011021 C 204.300026 565.011021 204.339123 564.995396 204.292206 564.987584 Z M 204.675361 564.940709 C 204.636264 564.925084 204.54243 564.925084 204.487693 564.932896 C 204.425138 564.948521 204.464235 564.956334 204.573708 564.956334 C 204.675361 564.956334 204.722278 564.948521 204.683181 564.940709 Z M 205.551143 564.886021 C 205.418212 564.878209 205.214905 564.878209 205.089794 564.886021 C 204.964682 564.893834 205.066335 564.901646 205.316559 564.901646 C 205.574601 564.901646 205.676255 564.893834 205.551143 564.886021 Z M 205.551143 564.886021 " transform="matrix(0.499554,0,0,0.5,-8.652556,-111.400038)"/>
<path style="fill-rule:nonzero;fill:rgb(100%,43.921569%,54.117647%);fill-opacity:1;stroke-width:0.00693761;stroke-linecap:butt;stroke-linejoin:miter;stroke:rgb(95.294118%,54.509804%,65.882353%);stroke-opacity:1;stroke-miterlimit:4;" d="M 137.740597 641.573522 L 137.740597 641.026647 L 138.350517 640.370397 C 145.200383 633.081335 151.393412 626.761022 164.991491 613.167272 L 173.436531 604.729772 L 173.436531 605.807897 L 163.857666 615.401647 C 154.951276 624.323522 152.120624 627.175085 147.905923 631.511022 C 144.770311 634.737585 141.9162 637.706335 139.218479 640.581335 C 138.428711 641.425085 137.771875 642.112585 137.756236 642.112585 C 137.748416 642.112585 137.740597 641.870397 137.740597 641.573522 Z M 137.740597 641.573522 " transform="matrix(0.499554,0,0,0.5,-8.652556,-111.400038)"/>
<path style="fill-rule:nonzero;fill:rgb(100%,43.921569%,54.117647%);fill-opacity:1;stroke-width:0.00693761;stroke-linecap:butt;stroke-linejoin:miter;stroke:rgb(95.294118%,54.509804%,65.882353%);stroke-opacity:1;stroke-miterlimit:4;" d="M 137.740597 632.901647 L 137.740597 632.214147 L 138.459989 631.37821 C 151.745289 615.84696 154.669775 612.448522 154.685414 612.50321 C 154.701053 612.53446 154.669775 612.59696 154.630678 612.636022 C 154.5994 612.682897 151.369954 616.448522 147.475852 621.00321 C 143.57393 625.557897 140.328845 629.354772 140.25847 629.432897 L 140.133358 629.581335 L 140.25847 629.456335 C 140.328845 629.393835 141.079516 628.526647 141.92402 627.542272 C 146.623528 622.073522 154.356996 613.081335 154.513385 612.917272 L 154.693233 612.72196 L 154.693233 613.87821 L 153.113698 615.72196 C 152.245736 616.729772 151.018077 618.151647 150.392519 618.886022 C 147.577505 622.15946 147.037961 622.78446 145.497523 624.581335 C 144.590463 625.62821 143.464458 626.94071 142.97965 627.50321 C 141.963117 628.682897 139.734565 631.276647 138.663296 632.526647 C 138.256683 633.00321 137.881348 633.44071 137.826611 633.487585 C 137.740597 633.581335 137.740597 633.56571 137.740597 632.901647 Z M 138.616379 631.401647 C 138.678935 631.323522 138.671115 631.323522 138.60074 631.386022 C 138.553823 631.417272 138.514726 631.456335 138.514726 631.464147 C 138.514726 631.511022 138.553823 631.479772 138.616379 631.401647 Z M 138.858783 631.112585 C 138.921339 631.03446 138.913519 631.03446 138.843144 631.09696 C 138.796227 631.12821 138.75713 631.167272 138.75713 631.175085 C 138.75713 631.214147 138.796227 631.19071 138.858783 631.112585 Z M 139.163743 630.761022 C 139.21066 630.706335 139.241937 630.667272 139.226299 630.667272 C 139.218479 630.667272 139.163743 630.706335 139.116826 630.761022 C 139.069909 630.81571 139.038631 630.854772 139.05427 630.854772 C 139.069909 630.854772 139.116826 630.81571 139.163743 630.761022 Z M 139.429605 630.448522 C 139.492161 630.37821 139.531258 630.323522 139.523439 630.323522 C 139.5078 630.323522 139.445244 630.37821 139.382688 630.448522 C 139.320132 630.511022 139.281035 630.56571 139.296674 630.56571 C 139.304493 630.56571 139.367049 630.511022 139.429605 630.448522 Z M 139.750204 630.073522 L 139.890954 629.917272 L 139.734565 630.057897 C 139.585995 630.19071 139.554717 630.229772 139.593814 630.229772 C 139.601634 630.229772 139.672009 630.15946 139.750204 630.073522 Z M 140.039525 629.737585 L 140.180275 629.581335 L 140.023886 629.72196 C 139.875316 629.854772 139.844038 629.893835 139.883135 629.893835 C 139.890954 629.893835 139.96133 629.823522 140.039525 629.737585 Z M 140.039525 629.737585 " transform="matrix(0.499554,0,0,0.5,-8.652556,-111.400038)"/>
<path style=" stroke:none;fill-rule:nonzero;fill:rgb(100%,43.921569%,54.117647%);fill-opacity:1;" d="M 133.070312 236.683594 C 133 234.292969 152.570312 210.46875 162.386719 200.996094 C 180.925781 183.109375 211.179688 164.453125 240.1875 153.03125 C 254.234375 147.496094 275.761719 142.03125 302.921875 137.105469 C 315.875 134.753906 330.078125 132.164062 334.480469 131.347656 C 351.613281 128.164062 359.597656 120.828125 358.257812 109.488281 C 358.023438 107.492188 357.25 104.710938 356.542969 103.308594 C 352.390625 95.089844 345.878906 92.785156 331.070312 94.285156 C 326.300781 94.769531 321.5 94.941406 320.402344 94.667969 C 317.519531 93.941406 316.585938 91.746094 317.585938 88.03125 C 319.605469 80.53125 333.546875 64.03125 343.003906 57.949219 C 349.816406 53.570312 351.339844 53.945312 345.316406 58.519531 C 338.605469 63.613281 334.054688 68.734375 331.738281 73.800781 C 328.40625 81.082031 330.710938 84.3125 337.929688 82.464844 C 342.777344 81.226562 356.921875 81.238281 361.355469 82.484375 C 363.613281 83.121094 365.625 84.558594 368.066406 87.273438 C 373.753906 93.605469 374.367188 100.777344 370.011719 110.054688 C 366.574219 117.371094 351.855469 130.703125 341.363281 136.003906 C 332.378906 140.542969 315.9375 144.652344 287.480469 149.460938 C 252.460938 155.378906 240 159.183594 214.523438 171.726562 C 189.910156 183.84375 176.144531 192.476562 162.785156 204.171875 C 154.894531 211.085938 144.671875 222.050781 139.34375 229.324219 C 134.121094 236.457031 133.097656 237.65625 133.070312 236.683594 Z M 133.070312 236.683594 "/>
<path style="fill-rule:nonzero;fill:rgb(100%,43.921569%,54.117647%);fill-opacity:1;stroke-width:0.00693761;stroke-linecap:butt;stroke-linejoin:miter;stroke:rgb(95.294118%,54.509804%,65.882353%);stroke-opacity:1;stroke-miterlimit:4;" d="M 611.702846 508.823521 L 611.702846 499.386021 L 611.812319 499.354771 C 611.93743 499.323521 614.885375 498.768833 617.716028 498.245396 C 618.779477 498.042271 623.314776 497.214146 627.78752 496.401646 C 643.121524 493.620396 657.712677 490.964146 661.817905 490.214146 C 664.077735 489.800083 667.47139 489.182896 669.355885 488.839146 C 671.24038 488.495396 672.843374 488.198521 672.921569 488.182896 L 673.0545 488.159458 L 673.0545 504.815708 L 672.319469 505.018833 C 658.134929 508.987583 641.721837 512.667271 620.108789 516.737583 C 616.605661 517.393833 611.882694 518.261021 611.78886 518.261021 C 611.710666 518.261021 611.702846 517.581333 611.702846 508.823521 Z M 611.702846 508.823521 " transform="matrix(0.499554,0,0,0.5,-8.652556,-111.400038)"/>
<path style=" stroke:none;fill-rule:nonzero;fill:rgb(100%,43.921569%,54.117647%);fill-opacity:1;" d="M 49.839844 270.011719 C 49.839844 269.777344 50.125 269.03125 50.476562 268.351562 C 51.292969 266.765625 57.066406 258.007812 59.234375 255.070312 C 75.535156 232.992188 81.261719 225.015625 91.792969 209.730469 C 95.820312 203.882812 99.726562 198.234375 100.472656 197.167969 C 101.21875 196.105469 102.671875 194.019531 103.703125 192.53125 C 114.960938 176.292969 127.003906 160.421875 136.105469 149.832031 C 145.851562 138.492188 162.808594 122.78125 165.296875 122.78125 C 167.75 122.78125 166.140625 131.859375 162.15625 140.488281 C 161.328125 142.285156 160.648438 143.894531 160.648438 144.0625 C 160.648438 144.472656 161.777344 145.582031 162.195312 145.582031 C 162.804688 145.582031 168.363281 139.703125 176.269531 130.703125 C 188.3125 116.988281 196.835938 109.1875 203.582031 105.710938 C 207.53125 103.675781 214.84375 101.914062 219.359375 101.914062 C 228.636719 101.910156 234.847656 106.847656 234.847656 114.21875 C 234.847656 117.453125 234.324219 119.457031 232.574219 122.960938 C 228.613281 130.882812 222.207031 137.429688 209.519531 146.515625 C 204.953125 149.789062 199.257812 152.777344 199.257812 151.90625 C 199.257812 151.574219 201.484375 149.816406 206.75 145.992188 C 214.054688 140.6875 216.554688 138.632812 219.503906 135.5 C 225.277344 129.378906 225.929688 123.90625 221.394531 119.652344 C 217.792969 116.273438 215.527344 115.386719 210.546875 115.410156 C 204.636719 115.433594 200.085938 116.757812 194.390625 120.117188 C 185.1875 125.542969 177.625 132.667969 166.945312 145.96875 C 157.890625 157.242188 149.78125 165.210938 148.867188 163.730469 C 148.574219 163.257812 148.996094 161.167969 149.597656 160.109375 C 149.835938 159.6875 150.917969 158.085938 152 156.542969 C 157.8125 148.273438 159.683594 139.757812 156.023438 138.242188 C 153.589844 137.230469 149.621094 140.058594 140.753906 149.117188 C 130.097656 160.007812 121.222656 171.769531 100.417969 202.59375 C 98.613281 205.269531 96.085938 208.96875 94.796875 210.816406 C 93.511719 212.660156 89.175781 218.957031 85.160156 224.800781 C 77.066406 236.582031 69.472656 247.226562 64.761719 253.394531 C 59.75 259.960938 56.382812 264.285156 54.75 266.261719 C 53.132812 268.214844 49.839844 270.730469 49.839844 270.011719 Z M 49.839844 270.011719 "/>
<path style="fill-rule:nonzero;fill:rgb(100%,80.392157%,51.372549%);fill-opacity:1;stroke-width:7.93701;stroke-linecap:butt;stroke-linejoin:miter;stroke:rgb(100%,80.392157%,51.372549%);stroke-opacity:1;stroke-miterlimit:4;" d="M 117.503778 762.362586 C 117.503778 760.284461 130.100963 741.206336 143.378443 723.198523 C 169.088899 688.315711 180.70083 672.073523 204.127997 638.245397 C 246.18899 577.518834 266.55874 550.018834 288.343816 524.573521 C 308.580635 500.940708 343.2053 468.57352 348.256685 468.57352 C 349.570358 468.57352 350.109903 470.081333 350.109903 473.753208 C 350.109903 480.807895 347.349626 490.643833 341.69614 503.690708 L 338.451055 511.175083 L 339.827284 512.604771 C 340.577954 513.393833 341.563209 514.042271 342.0011 514.042271 C 343.080188 514.042271 353.808518 502.948521 366.092923 489.143833 C 398.668884 452.534458 413.97161 438.82352 429.274336 432.557895 C 433.89565 430.66727 444.092254 428.10477 449.839573 427.38602 C 467.417768 425.19852 481.610128 431.581332 485.840467 443.581332 C 487.240155 447.54227 487.427822 455.034458 486.24708 459.612583 C 484.761379 465.331333 479.999314 474.29227 474.611691 481.495395 C 464.657491 494.784458 438.344935 516.307896 421.986579 524.526646 C 417.255793 526.909458 415.63716 527.112583 418.076838 525.026646 C 418.999537 524.229771 424.168215 520.323521 429.563657 516.339146 C 447.798688 502.862583 452.623309 498.839146 458.003112 492.628208 C 464.157044 485.534458 466.518528 480.464145 466.495069 474.432895 C 466.47943 469.839145 465.025007 466.659458 461.06053 462.534458 C 457.182067 458.487583 453.248867 455.893833 449.002889 454.581333 C 446.156597 453.69852 444.498867 453.534458 438.900118 453.550083 C 427.905927 453.581333 421.06388 455.268833 410.859457 460.471958 C 391.662629 470.26102 375.515399 484.909458 351.556507 514.276646 C 335.831529 533.557896 322.608785 547.386021 317.651234 549.737584 C 315.328848 550.839146 314.930054 550.182896 315.829295 546.682896 C 316.384478 544.518834 317.791984 541.956334 321.451502 536.456334 C 329.583763 524.214146 333.360573 514.964146 333.360573 507.261021 C 333.360573 503.089146 332.742834 501.346958 330.670671 499.721958 C 326.581082 496.503208 319.535729 500.675083 304.936756 514.971958 C 280.74328 538.667271 265.722055 558.042271 223.25445 620.34696 C 180.677371 682.800085 159.072143 713.471961 142.299355 735.253211 C 127.794216 754.104774 125.354538 757.018836 121.538631 760.042274 C 117.660168 763.128211 117.503778 763.221961 117.503778 762.362586 Z M 117.503778 762.362586 " transform="matrix(0.499554,0,0,0.5,-8.652556,-111.400038)"/>
<path style="fill-rule:nonzero;fill:rgb(79.215686%,100%,55.686275%);fill-opacity:1;stroke-width:7.59766;stroke-linecap:butt;stroke-linejoin:miter;stroke:rgb(79.215686%,100%,55.686275%);stroke-opacity:1;stroke-miterlimit:4;" d="M 502.589797 499.745396 C 502.151906 499.026646 509.197259 489.245396 511.60566 487.237583 C 513.310307 485.807895 527.111692 468.85477 529.778135 464.909458 C 534.063211 458.565708 538.973846 447.581332 540.256241 441.47977 C 541.984347 433.26102 541.593372 422.94852 539.333542 416.901645 C 533.18743 400.479769 518.791764 397.487582 500.157938 408.745394 C 489.844042 414.971957 488.639842 413.401645 497.288189 405.003207 C 517.407715 385.479769 538.684525 374.104769 552.438994 375.526644 C 559.539083 376.261019 562.776349 378.276644 565.395875 383.589144 C 567.452399 387.768832 567.640066 389.362582 567.608788 402.042269 C 567.561871 418.901645 565.841585 426.081332 558.069021 441.768832 C 551.508475 455.018833 542.852309 466.596958 529.379342 480.120395 C 512.278135 497.284458 504.568126 502.940708 502.589797 499.745396 Z M 502.589797 499.745396 " transform="matrix(0.499554,0,0,0.5,-8.652556,-111.400038)"/>
<path style="fill-rule:nonzero;fill:rgb(100%,80.392157%,51.372549%);fill-opacity:1;stroke-width:7.93701;stroke-linecap:butt;stroke-linejoin:miter;stroke:rgb(78.431373%,66.27451%,100%);stroke-opacity:1;stroke-miterlimit:4;" d="M 109.496629 672.143835 C 109.496629 671.167273 117.847835 659.00321 124.212894 650.706335 C 129.115709 644.323522 166.352081 600.675084 178.933627 586.573522 C 190.334431 573.800084 203.721384 563.886021 206.215799 566.378209 C 207.975182 568.143834 197.160839 580.128209 156.898327 621.00321 C 131.094037 647.198523 125.17469 653.737585 117.855655 664.143835 C 113.054493 670.97196 109.496629 674.37821 109.496629 672.143835 Z M 109.496629 672.143835 " transform="matrix(0.499554,0,0,0.5,-8.652556,-111.400038)"/>
<path style="fill-rule:nonzero;fill:rgb(100%,80.392157%,51.372549%);fill-opacity:1;stroke-width:7.93701;stroke-linecap:butt;stroke-linejoin:miter;stroke:rgb(100%,80.392157%,51.372549%);stroke-opacity:1;stroke-miterlimit:4;" d="M 107.166423 675.331335 C 104.601633 672.768835 109.379337 664.136023 122.586441 647.432898 C 129.162625 639.112585 172.154136 588.909459 179.6452 580.784459 C 189.521205 570.089147 199.803824 563.003209 205.44167 563.003209 C 207.850071 563.003209 208.592921 563.518834 209.109007 565.573521 C 210.375763 570.620397 208.788408 572.487584 163.216469 619.50321 C 145.622635 637.651647 128.286844 656.323523 124.689882 661.00321 C 121.09292 665.675085 116.792205 670.964148 115.134475 672.75321 C 112.335101 675.761023 108.753778 676.917273 107.166423 675.331335 Z M 190.498641 580.581334 C 190.498641 579.292272 184.125763 585.456334 180.23948 590.503209 C 177.97965 593.432897 178.933627 592.776647 183.828623 588.026647 C 187.49596 584.471959 190.498641 581.120397 190.498641 580.581334 Z M 190.498641 580.581334 " transform="matrix(0.499554,0,0,0.5,-8.652556,-111.400038)"/>
<path style=" stroke:none;fill-rule:nonzero;fill:rgb(100%,80.392157%,51.372549%);fill-opacity:1;" d="M 158.375 137.445312 C 157.277344 136.136719 156.699219 135.871094 154.941406 135.871094 L 152.832031 135.871094 L 155.289062 133.609375 C 160.082031 129.199219 163.472656 126.460938 163.769531 126.757812 C 164.367188 127.359375 160.703125 139.175781 159.957031 139.058594 C 159.8125 139.039062 159.101562 138.3125 158.375 137.445312 Z M 158.375 137.445312 "/>
<path style=" stroke:none;fill-rule:nonzero;fill:rgb(100%,80.392157%,51.372549%);fill-opacity:1;" d="M 226.398438 125.644531 C 226.390625 123.65625 226.046875 122.359375 225.113281 120.757812 C 223.441406 117.910156 219.472656 114.8125 216.273438 113.859375 C 210.65625 112.191406 202.796875 113.296875 195.976562 116.71875 C 190.378906 119.527344 190.394531 119.523438 192.417969 117.347656 C 195.164062 114.398438 201.265625 109.6875 204.375 108.117188 C 212.863281 103.828125 222.707031 103.207031 228.089844 106.621094 C 233.695312 110.179688 233.839844 116.75 228.488281 125.101562 L 226.410156 128.351562 Z M 226.398438 125.644531 "/>
<path style="fill-rule:nonzero;fill:rgb(79.215686%,100%,55.686275%);fill-opacity:1;stroke-width:7.93701;stroke-linecap:butt;stroke-linejoin:miter;stroke:rgb(79.215686%,100%,55.686275%);stroke-opacity:1;stroke-miterlimit:4;" d="M 104.703286 677.800085 C 102.912625 676.011023 103.248863 670.417273 105.391401 666.206335 C 108.128219 660.862585 117.488139 648.042273 126.316334 637.56571 C 149.32125 610.261022 176.02478 579.690709 181.842474 573.995397 C 197.794217 558.386021 212.502662 555.136021 212.502662 567.229771 C 212.502662 572.448522 208.334878 577.471959 176.642519 610.50321 C 142.424467 646.151647 134.323483 654.901648 125.299801 665.893835 C 121.413519 670.62821 117.058068 675.511023 115.619283 676.745398 C 112.733894 679.22196 106.705074 679.800085 104.703286 677.800085 Z M 104.703286 677.800085 " transform="matrix(0.499554,0,0,0.5,-8.652556,-111.400038)"/>
<path style="fill-rule:nonzero;fill:rgb(53.72549%,70.588235%,98.039216%);fill-opacity:1;stroke-width:11.2246;stroke-linecap:butt;stroke-linejoin:miter;stroke:rgb(53.72549%,70.588235%,98.039216%);stroke-opacity:1;stroke-miterlimit:4;" d="M 586.367725 456.956333 C 578.556063 449.659458 577.351863 441.221957 581.363257 421.72977 C 584.060978 408.604769 588.799584 399.339144 601.420228 382.503207 C 611.616832 368.909456 635.223847 344.128206 636.631354 345.542269 C 637.108342 346.011019 634.011828 350.714144 629.758029 355.987581 C 609.927824 380.573519 604.563659 391.393832 603.609682 408.706332 C 602.757359 424.151645 606.065 431.714145 615.839352 436.63602 C 623.604097 440.550082 629.234124 440.651645 638.773892 437.026645 C 642.816564 435.487582 646.366609 434.464145 646.64811 434.753207 C 647.797574 435.901645 625.949942 451.72977 616.996635 456.237583 C 609.37264 460.07352 605.806957 461.034458 599.105661 461.034458 C 591.833543 461.034458 590.160174 460.495395 586.367725 456.956333 Z M 586.367725 456.956333 " transform="matrix(0.499554,0,0,0.5,-8.652556,-111.400038)"/>
<path style="fill-rule:nonzero;fill:rgb(78.431373%,66.27451%,100%);fill-opacity:1;stroke-width:3.02362;stroke-linecap:butt;stroke-linejoin:miter;stroke:rgb(78.431373%,66.27451%,100%);stroke-opacity:1;stroke-miterlimit:4;" d="M 498.63314 504.925083 C 493.636491 500.995396 495.364596 497.104771 510.55003 478.089145 C 529.121299 454.82352 532.866831 447.534457 533.726974 433.003207 C 533.906822 421.32352 530.669556 408.151644 519.120182 409.214145 C 516.57885 409.464145 510.221612 411.596957 504.998198 413.971957 C 493.49574 419.182895 489.593819 419.581332 486.755347 415.839145 C 485.285284 413.893832 484.925588 412.401645 485.426035 410.339145 C 497.366383 390.690707 543.227644 358.362581 562.213346 370.386019 C 581.292881 382.471957 572.581979 419.846957 565.841585 436.32352 C 559.265401 452.401645 550.335553 467.72977 531.529699 486.54227 C 511.543104 506.542271 505.193685 510.089146 498.63314 504.925083 Z M 498.63314 504.925083 " transform="matrix(0.499554,0,0,0.5,-8.652556,-111.400038)"/>
</g>
</svg>
